<svg width="300" height="165" viewBox="0 0 300 165" fill="none" xmlns="http://www.w3.org/2000/svg">
<rect width="300" height="165" fill="#1E1E1E"/>
<path d="M14 72C45.6667 72 77.3333 72 109 72C112.938 72 110.72 71.5574 108.944 73.1111C103.564 77.8188 96.5136 80.3313 89.9444 83C79.3249 87.3142 65.0121 91.8837 62.5 104.444C61.6767 108.561 60.8373 115.66 63 119.444C66.979 126.408 78.8317 124 85.2222 124C94.013 124 107.738 126.63 115.944 122.722C121.399 120.125 126.428 116.202 131.944 113.444C135.938 111.447 141.122 108.98 144.444 106.056C146.182 104.527 150.478 103.011 150.944 100.444C151.527 97.2414 151 93.4799 151 90.2222C151 86.6508 152.148 84 148 84C141.429 84 138.553 84.3328 133 88C129.208 90.5039 125.747 92.6604 122.222 95.5556C119.972 97.4038 118.994 101.67 117.444 104.222C116.248 106.193 117.988 114.754 120.222 115.778C123.336 117.205 123.948 119.632 128 120C129.493 120.136 137.831 123.207 138.778 124.444C141.842 128.451 150.262 128.2 154.667 129.778C175.083 137.091 195.993 124.323 207.556 108.556C209.062 106.501 220.263 87.3276 209.5 92.1111C206.627 93.3882 204.619 99.9819 203.5 102.444C201.42 107.02 201.198 114.976 205.056 118.833C209.753 123.531 216.015 130.015 223.667 126.444C227.603 124.607 232.589 123.459 235 119.556C239.442 112.363 240.701 103.985 244 96.2222C248.603 85.3928 260.83 76.4915 272 73.2222C276.711 71.8434 279.208 81.5036 281.333 85.1111C286.987 94.7085 292.424 105.516 296.222 116C298.47 122.204 300.145 131.848 293 135.778C289.344 137.789 277 130.823 277 136" stroke="white" stroke-width="3" stroke-linecap="round"/>
<path d="M27 2C27 46.6229 28.3747 91.0126 30.0556 135.556C30.1465 137.967 29.6679 144.641 31.2222 146.778C31.7769 147.54 33.4382 147.725 33.2222 148.444C32.0173 152.461 34 161 34 161" stroke="white" stroke-width="3" stroke-linecap="round"/>
<path d="M2 12C8.20295 13.1278 13.3318 14.772 20 15C28.1669 15.2792 36.3321 15.7176 44.5 15.9444C47.4958 16.0277 51.216 15.4168 54.1667 16.1111C54.2849 16.1389 57.0871 20.0483 57.3333 20.4444C60.4183 25.4072 51.6298 36.6021 49.1111 40C38.5839 54.2018 24.9556 68.7975 8.5 76.1111C5.10685 77.6192 10.4559 78.8837 11.4444 79C20.2968 80.0415 29.4142 81.0744 38 83.6111C47.5427 86.4306 58.5564 89.377 63.4444 98.8889C70.3115 112.252 69.6434 132.491 63 145.778C57.7138 156.35 43.29 160.841 32.4444 162.778C29.8292 163.245 24 163.472 24 160" stroke="white" stroke-width="3" stroke-linecap="round"/>
<path d="M213 74L214 75" stroke="white" stroke-width="3" stroke-linecap="round"/>
</svg>
